# xmcd
#
# Track frame offsets: 
#        150
#        22371
#        50233
#        66796
#        85203
#        103646
#        121748
#        137471
#        159893
#        177893
#        208158
#
# Disc length: 3154 seconds
#
# Revision: 0
# Processed by: cddbd v1.5.2PL0 Copyright (c) Steve Scherf et al.
# Submitted via: ExactAudioCopy v1.2
#
DISCID=960c500b
DTITLE=Mighty Sam McClain - A Diamond in the Rough
DYEAR=2018
DGENRE=Blues
TTITLE0=My Everything
TTITLE1=When the Hurt Is Over
TTITLE2=Grooving
TTITLE3=Love's Gonna Find
TTITLE4=Where Is the Love?
TTITLE5=Love Me If You Want To
TTITLE6=Question
TTITLE7=Everytime
TTITLE8=Believe
TTITLE9=Southern Land
TTITLE10=Holy Ghost Fever
EXTD=
EXTT0=
EXTT1=
EXTT2=
EXTT3=
EXTT4=
EXTT5=
EXTT6=
EXTT7=
EXTT8=
EXTT9=
EXTT10=
PLAYORDER=
